<svg width="26" height="23" viewBox="0 0 26 23" fill="none" xmlns="http://www.w3.org/2000/svg">
<path d="M19.2881 20.4198V21.2882L6.57844 21.288V10.7624C7.65736 10.6308 8.63094 10.1835 9.42036 9.49935H16.683C17.0514 9.49935 17.3671 9.18364 17.3671 8.81524C17.3671 8.44685 17.0777 8.13112 16.683 8.13112L10.5782 8.13094C10.9466 7.49935 11.1833 6.81524 11.2887 6.05222H19.2882V13.5254L20.6301 12.0254V5.78899C20.6301 5.21008 20.1566 4.73652 19.5777 4.73652H11.2624C10.9467 2.07885 8.68371 0 5.92069 0C2.92089 0 0.5 2.42089 0.5 5.42069C0.5 8.18371 2.57871 10.4467 5.23652 10.7624V21.5775C5.23652 22.1564 5.71008 22.63 6.28899 22.63H19.5513C20.1302 22.63 20.6037 22.1564 20.6037 21.5775V19.1039L19.7354 20.0512C19.6304 20.2355 19.4725 20.3407 19.2882 20.4198H19.2881ZM1.84192 5.42082C1.84192 3.18403 3.65763 1.3421 5.92064 1.3421C8.18364 1.34228 9.99936 3.15781 9.99936 5.42082C9.99936 7.68382 8.18364 9.49954 5.92064 9.49954C3.65763 9.49954 1.84192 7.6576 1.84192 5.42082Z" fill="#119DA4"/>
<path d="M9.18363 12.7361H16.6831C17.0515 12.7361 17.3672 12.4466 17.3672 12.052C17.3672 11.6574 17.0778 11.3679 16.6831 11.3679H9.18363C8.81524 11.3679 8.49951 11.6573 8.49951 12.052C8.49933 12.4466 8.81522 12.7361 9.18363 12.7361Z" fill="#119DA4"/>
<path d="M17.3672 15.3149C17.3672 14.9465 17.0778 14.6308 16.6831 14.6308L9.18363 14.6306C8.81524 14.6306 8.49951 14.92 8.49951 15.3147C8.49951 15.6831 8.78897 15.9988 9.18363 15.9988L16.6831 15.999C17.0515 15.9728 17.3674 15.6833 17.3674 15.3149H17.3672Z" fill="#119DA4"/>
<path d="M8.49945 18.5515C8.49945 18.9199 8.78891 19.2356 9.18357 19.2356H15.6568L15.8936 17.8937H9.18353C8.81514 17.8674 8.49927 18.1569 8.49927 18.5515H8.49945Z" fill="#119DA4"/>
<path d="M18.1172 16.4699L22.1206 12.002L24.0215 13.7052L20.018 18.1731L18.1172 16.4699Z" fill="#119DA4"/>
<path d="M17.1829 19.9198L18.788 19.4725C18.867 19.4463 18.9197 19.4198 18.9723 19.3673L19.4459 18.8411L17.5513 17.1308L17.0777 17.657C17.025 17.7097 16.9988 17.7886 16.9725 17.8413L16.6829 19.4988C16.6567 19.762 16.8934 19.9988 17.1829 19.9198H17.1829Z" fill="#119DA4"/>
<path d="M25.3666 11.6309L24.0509 10.4468C23.893 10.3152 23.6563 10.3152 23.4982 10.4731L22.7087 11.3677L24.6033 13.078L25.3928 12.1834C25.5509 12.0257 25.5244 11.7625 25.3666 11.6309L25.3666 11.6309Z" fill="#119DA4"/>
<path d="M8.05192 4.73664C8.2887 4.44718 8.26245 4.02612 7.99924 3.78934C7.70977 3.55256 7.28871 3.5788 7.05193 3.84202L5.42051 5.71041L4.63104 4.92094C4.36783 4.65773 3.94693 4.65773 3.68374 4.92094C3.42052 5.18416 3.42052 5.60506 3.68374 5.86825L4.97317 7.15768C5.10478 7.28929 5.26264 7.34197 5.44673 7.34197H5.47298C5.65727 7.34197 5.84137 7.26304 5.94654 7.10518L8.05192 4.73664Z" fill="#119DA4"/>
</svg>
