<svg width="27" height="26" viewBox="0 0 27 26" fill="none" xmlns="http://www.w3.org/2000/svg">
<path d="M16.7841 22.6749C15.9048 21.8344 15.3955 20.679 15.3681 19.4628C15.3405 18.2468 15.7976 17.0696 16.638 16.1904C17.4784 15.3111 18.6339 14.8015 19.8499 14.7743C21.0661 14.7468 22.2433 15.2035 23.1225 16.044C24.0019 16.8846 24.5112 18.04 24.5386 19.2562C24.5661 20.4721 24.1092 21.6495 23.2688 22.5287C22.4283 23.4079 21.2727 23.9174 20.0569 23.9448C18.8406 23.9722 17.6634 23.5155 16.7841 22.6749ZM21.835 17.3909C21.3129 16.8919 20.6139 16.6207 19.8919 16.637C19.1699 16.6533 18.4839 16.9557 17.9848 17.4778C17.4858 17.9998 17.2146 18.6988 17.2309 19.4208C17.2471 20.1429 17.5496 20.8289 18.0716 21.3279C18.5937 21.827 19.2927 22.0982 20.0147 22.0819C20.7369 22.0658 21.4228 21.7632 21.9218 21.2411C22.4203 20.7188 22.6911 20.02 22.6746 19.298C22.6584 18.5763 22.3564 17.8904 21.835 17.3909L21.835 17.3909Z" fill="#119DA4"/>
<path d="M3.31529 9.80002C2.43604 8.95955 1.92674 7.80414 1.89933 6.58796C1.87177 5.37188 2.32877 4.19469 3.16921 3.31548C4.00965 2.43626 5.16509 1.92663 6.38113 1.89937C7.59735 1.87195 8.77454 2.32866 9.65375 3.1691C10.5332 4.00972 11.0425 5.16513 11.0699 6.38131C11.0973 7.59725 10.6404 8.77458 9.79998 9.65379C8.95955 10.533 7.80396 11.0425 6.58807 11.0699C5.37184 11.0973 4.19466 10.6406 3.31529 9.80002ZM8.3662 4.51607C7.84413 4.01703 7.14514 3.74581 6.42313 3.76211C5.70109 3.77839 5.01507 4.08082 4.51603 4.60289C4.01699 5.12496 3.74577 5.82394 3.76207 6.54596C3.77835 7.26799 4.08078 7.95402 4.60285 8.45306C5.12492 8.9521 5.82391 9.22332 6.54592 9.20702C7.2681 9.19087 7.95398 8.8883 8.45302 8.36624C8.95149 7.8439 9.22227 7.14507 9.20585 6.42316C9.18958 5.70141 8.88759 5.01552 8.3662 4.516L8.3662 4.51607Z" fill="#119DA4"/>
<path d="M11.1685 9.67358L16.5561 14.8235L15.2687 16.1703L9.88113 11.0204L11.1685 9.67358Z" fill="#119DA4"/>
</svg>
