<svg width="180" height="30" viewBox="0 0 180 30" fill="none" xmlns="http://www.w3.org/2000/svg">
<path d="M66.8555 23.8999H56.6572L54.9008 28.9235H49.0273L59.0651 2.48346H64.2965L74.6836 28.9707H68.6402L66.8555 23.8999ZM58.3569 18.9046H65.1558L61.7374 9.44285L58.3569 18.9046Z" fill="#252224"/>
<path d="M96.8178 1.13313V28.9235H92.8707L92.238 27.2238C90.5282 28.7236 88.3273 29.5435 86.0529 29.5278C80.0567 29.5278 75.6658 24.8914 75.6658 18.7063C75.6658 12.5212 80.0567 7.91311 86.0529 7.91311C87.9914 7.89974 89.8859 8.49053 91.4731 9.60338V1.1048L96.8178 1.13313ZM91.8697 18.7063C91.8697 17.2788 91.3027 15.9098 90.2933 14.9004C89.2839 13.8909 87.9148 13.3239 86.4873 13.3239C85.0598 13.3239 83.6908 13.8909 82.6813 14.9004C81.6719 15.9098 81.1049 17.2788 81.1049 18.7063C81.1049 20.1338 81.6719 21.5029 82.6813 22.5123C83.6908 23.5217 85.0598 24.0887 86.4873 24.0887C87.9148 24.0887 89.2839 23.5217 90.2933 22.5123C91.3027 21.5029 91.8697 20.1338 91.8697 18.7063Z" fill="#252224"/>
<path d="M101.983 8.49856H107.318V28.9235H101.983V8.49856ZM101.983 0.64209H107.299V5.76957H101.983V0.64209Z" fill="#252224"/>
<path d="M133.569 18.7063C133.569 24.8914 129.207 29.4995 123.182 29.4995C120.91 29.5221 118.709 28.7089 116.997 27.2143L116.364 28.9235H112.417V1.13312H117.762V9.6317C119.351 8.52333 121.245 7.93599 123.182 7.95087C129.207 7.9131 133.569 12.5212 133.569 18.7063ZM122.757 24.2776C123.481 24.2834 124.199 24.1418 124.867 23.8613C125.534 23.5808 126.138 23.1674 126.641 22.6462C127.143 22.1249 127.535 21.5068 127.791 20.8295C128.047 20.1521 128.162 19.4297 128.13 18.7063C128.13 17.2788 127.563 15.9097 126.554 14.9003C125.544 13.8909 124.175 13.3239 122.748 13.3239C121.32 13.3239 119.951 13.8909 118.942 14.9003C117.932 15.9097 117.365 17.2788 117.365 18.7063C117.336 19.4307 117.454 20.1535 117.712 20.8309C117.97 21.5083 118.364 22.1262 118.868 22.6471C119.372 23.1681 119.977 23.5812 120.645 23.8615C121.314 24.1417 122.032 24.2833 122.757 24.2776Z" fill="#252224"/>
<path d="M136.109 18.7063C136.109 15.8738 137.235 13.1574 139.238 11.1545C141.24 9.15163 143.957 8.02643 146.789 8.02643C149.622 8.02643 152.338 9.15163 154.341 11.1545C156.344 13.1574 157.469 15.8738 157.469 18.7063C157.469 21.5388 156.344 24.2553 154.341 26.2581C152.338 28.261 149.622 29.3862 146.789 29.3862C143.957 29.3862 141.24 28.261 139.238 26.2581C137.235 24.2553 136.109 21.5388 136.109 18.7063ZM152.059 18.7063C152.059 15.4013 149.868 13.1067 146.789 13.1067C143.711 13.1067 141.53 15.4013 141.53 18.7063C141.53 22.0113 143.711 24.3059 146.789 24.3059C149.868 24.3059 152.03 22.0113 152.03 18.7063H152.059Z" fill="#252224"/>
<path d="M161.029 20.2927V8.4986H166.374V19.6695C166.374 22.5685 167.856 24.306 170.331 24.306C172.805 24.306 174.249 22.5307 174.249 19.6695V8.4986H179.594V20.3022C179.594 25.8168 175.921 29.509 170.331 29.509C164.74 29.509 161.029 25.8074 161.029 20.2927Z" fill="#252224"/>
<path d="M20.1511 11.7375C20.8841 11.9545 21.5619 12.3265 22.1387 12.8283C22.7154 13.33 23.1776 13.9499 23.4939 14.6459H29.4712C29.7252 14.6461 29.9751 14.5827 30.1983 14.4615C30.4214 14.3403 30.6107 14.1651 30.7487 13.952C30.8868 13.7388 30.9692 13.4944 30.9885 13.2412C31.0078 12.988 30.9634 12.734 30.8593 12.5024L25.9018 1.66194C25.6757 1.16374 25.3101 0.741686 24.8493 0.446762C24.3885 0.151838 23.8521 -0.00333431 23.305 -8.67958e-06H21.4164C21.0758 -8.67958e-06 20.7492 0.135294 20.5083 0.376134C20.2675 0.616974 20.1322 0.943623 20.1322 1.28422L20.1511 11.7375Z" fill="#119DA4"/>
<path d="M32.2474 17.6771H23.8904C23.7309 18.6737 23.291 19.6043 22.6222 20.3601C21.9533 21.1159 21.0831 21.6657 20.1133 21.9452C20.1133 24.0815 20.9619 26.1303 22.4725 27.6408C23.983 29.1514 26.0318 30 28.1681 30H34.3815C34.8637 30.0117 35.3409 29.9 35.7679 29.6755C36.1949 29.4511 36.5576 29.1213 36.8214 28.7175C37.0853 28.3137 37.2416 27.8492 37.2757 27.368C37.3098 26.8868 37.2204 26.4049 37.016 25.9679L33.6355 18.5647C33.512 18.3004 33.3159 18.0767 33.0702 17.9195C32.8244 17.7624 32.5391 17.6783 32.2474 17.6771Z" fill="#119DA4"/>
<path d="M13.7866 14.6459C14.1014 13.9506 14.5619 13.331 15.137 12.8292C15.7122 12.3274 16.3884 11.9551 17.12 11.7375V1.28422C17.12 0.943616 16.9847 0.616967 16.7438 0.376127C16.503 0.135287 16.1763 -1.49822e-05 15.8357 -1.49822e-05H13.9472C13.3969 -0.00701366 12.8564 0.146433 12.3919 0.441576C11.9274 0.736718 11.5589 1.16077 11.3315 1.66193L6.4212 12.5023C6.31481 12.7331 6.26832 12.9869 6.28602 13.2403C6.30373 13.4938 6.38506 13.7386 6.52249 13.9523C6.65992 14.166 6.84902 14.3416 7.07229 14.4628C7.29556 14.584 7.5458 14.647 7.79986 14.6459H13.7866Z" fill="#119DA4"/>
<path d="M17.1199 21.9452C16.1501 21.6657 15.2799 21.1159 14.6111 20.3601C13.9422 19.6043 13.5023 18.6737 13.3428 17.6771H5.02362C4.73302 17.6778 4.44871 17.7618 4.20437 17.9191C3.96003 18.0764 3.76589 18.3004 3.64496 18.5647L0.26441 25.9679C0.0626144 26.3998 -0.0269418 26.8756 0.00403551 27.3512C0.0350128 27.8269 0.185522 28.2871 0.441624 28.6891C0.697726 29.0912 1.05114 29.4221 1.46913 29.6512C1.88713 29.8804 2.35619 30.0003 2.83287 30H9.06517C11.2014 30 13.2502 29.1514 14.7607 27.6408C16.2713 26.1303 17.1199 24.0815 17.1199 21.9452Z" fill="#119DA4"/>
</svg>
