<svg width="21" height="21" viewBox="0 0 21 21" fill="none" xmlns="http://www.w3.org/2000/svg">
<path d="M7.16638 12.318C8.02923 11.7354 9.10074 11.5706 10.0897 11.8544L10.0897 8.61392C10.0897 8.61379 10.0897 8.61366 10.0897 8.61353V8.61323H10.3397C10.3394 8.4821 10.4023 8.35895 10.5086 8.28242L7.16638 12.318ZM7.16638 12.318C6.20233 12.9688 5.62477 14.0557 5.62477 15.2188C5.62477 16.3819 6.20233 17.4688 7.16638 18.1196C8.02923 18.7022 9.10075 18.867 10.0897 18.5833V19.4376H3.03139C2.77447 19.4376 2.52794 19.3355 2.34638 19.1539C2.16478 18.9723 2.06267 18.7257 2.06267 18.4689V18.3279L2.0625 18.3278V3.03125C2.0625 2.77433 2.16459 2.52779 2.34618 2.34624C2.52781 2.16464 2.77438 2.06252 3.03123 2.06252H10.0937V3.93633V3.93719H10.3437C10.3428 4.05326 10.3916 4.16407 10.4778 4.24187L10.3075 4.42495C10.308 4.42536 10.3084 4.42577 10.3088 4.42618M7.16638 12.318L10.3088 4.42618M10.3088 4.42618C10.5345 4.63485 10.8749 4.65896 11.1277 4.48416L11.1281 4.48392M10.3088 4.42618L11.1281 4.48392M11.1281 4.48392C11.7 4.08713 12.4266 3.98638 13.085 4.21229L13.085 4.2123M11.1281 4.48392L13.085 4.2123M13.085 4.2123C13.7431 4.43803 14.2547 4.96371 14.4625 5.6281L14.4625 5.62812M13.085 4.2123L14.4625 5.62812M14.4625 5.62812C14.6704 6.29233 14.5498 7.01584 14.1377 7.57671L14.4625 5.62812ZM11.4007 17.3774L11.4034 17.3951C11.4123 17.4535 11.4133 17.5127 11.4063 17.5713V19.4375H18.4688C18.7256 19.4375 18.9722 19.3354 19.1538 19.1538C19.3354 18.9722 19.4375 18.7257 19.4375 18.4688V3.03117C19.4375 2.77432 19.3354 2.52776 19.1538 2.34613C18.9722 2.16454 18.7257 2.06245 18.4688 2.06245H11.4063V2.9156C12.3958 2.62849 13.4696 2.79096 14.3347 3.37311C15.3015 4.02333 15.8812 5.11199 15.8812 6.27719C15.8812 7.44225 15.3015 8.53091 14.3347 9.18112C13.4695 9.76324 12.3958 9.9257 11.4063 9.63861L11.4063 12.87C11.4063 12.8701 11.4063 12.8703 11.4063 12.8704V12.8706H11.1563C11.1566 13.0184 11.0765 13.1548 10.9473 13.2264L11.4007 17.3774ZM11.4007 17.3774L11.3955 17.3603C11.3346 17.159 11.1808 16.9992 10.9823 16.9303L10.9004 17.1665L10.9822 16.9303C10.7836 16.8615 10.5641 16.8922 10.392 17.0123C9.95233 17.3181 9.41603 17.4521 8.88427 17.3889C8.35252 17.3258 7.86251 17.0697 7.50703 16.6694L7.50699 16.6693C7.15134 16.2689 6.9549 15.7521 6.9549 15.2167C6.9549 14.6812 7.15135 14.1643 7.50696 13.7641L7.50703 13.764C7.86247 13.3637 8.35252 13.1077 8.88427 13.0445L8.88433 13.0445C9.41601 12.9812 9.95229 13.1153 10.392 13.4211L10.3918 13.4214L10.4022 13.4279C10.6048 13.5546 10.86 13.5609 11.0687 13.445L11.4007 17.3774ZM1.41812 1.41801L1.41802 1.41811C0.990318 1.84602 0.75 2.42629 0.75 3.03125V18.4688C0.75 19.0737 0.990351 19.6539 1.41801 20.0819L1.41811 20.082C1.84602 20.5097 2.42629 20.75 3.03125 20.75H18.4688C19.0737 20.75 19.6539 20.5096 20.0819 20.082L20.082 20.0819C20.5097 19.654 20.75 19.0737 20.75 18.4688V3.03125C20.75 2.42627 20.5096 1.84606 20.082 1.41812L20.0819 1.41802C19.654 0.990318 19.0737 0.75 18.4688 0.75H3.03125C2.42627 0.75 1.84606 0.990351 1.41812 1.41801Z" fill="#119DA4" stroke="#119DA4" stroke-width="0.5"/>
</svg>
