<svg xmlns="http://www.w3.org/2000/svg" viewBox="0 0 2.82 2.03"><defs><style>.cls-1{fill:#119da4;}</style></defs><g id="Layer_2" data-name="Layer 2"><g id="Layer_1-2" data-name="Layer 1"><path class="cls-1" d="M1.52.79a.38.38,0,0,1,.26.2h.45a.1.1,0,0,0,.1-.15L2,.11A.22.22,0,0,0,1.76,0H1.62a.1.1,0,0,0-.1.09Z"/><path class="cls-1" d="M2.44,1.19H1.81a.39.39,0,0,1-.29.29h0A.59.59,0,0,0,2.13,2H2.6a.2.2,0,0,0,.2-.28l-.26-.5A.13.13,0,0,0,2.44,1.19Z"/><path class="cls-1" d="M1,1a.39.39,0,0,1,.25-.2V.09A.09.09,0,0,0,1.2,0H1.06a.21.21,0,0,0-.2.11L.49.84A.1.1,0,0,0,.59,1Z"/><path class="cls-1" d="M1.29,1.48A.39.39,0,0,1,1,1.19H.38a.11.11,0,0,0-.1.06L0,1.75A.2.2,0,0,0,.22,2H.69a.58.58,0,0,0,.6-.55Z"/></g></g></svg>